<!-- Generated by SVGMaker - https://svgmaker.io -->
<!-- Prompt: can you make the background transparent and make the colors lighter so theres more  contrast on a darker background bu same shades -->
<!-- Quality: medium -->
<!-- Type: edit -->
<!-- Created: 2026-01-03T00:36:47.596Z -->
<svg version="1.1" xmlns="http://www.w3.org/2000/svg" style="display: block;" viewBox="0 0 2048 2048" width="1024" height="1024" preserveAspectRatio="none">
<defs>
	<linearGradient id="Gradient1" gradientUnits="userSpaceOnUse" x1="1367.03" y1="1471.66" x2="1397.2" y2="943.492">
		<stop class="stop0" offset="0" stop-opacity="1" stop-color="rgb(156,187,196)"></stop>
		<stop class="stop1" offset="1" stop-opacity="1" stop-color="rgb(191,215,215)"></stop>
	</linearGradient>
</defs>
<path transform="translate(0,0)" fill="rgb(78,119,139)" d="M 764.785 523.98 L 665.731 524.111 C 648.867 524.111 632.114 524.334 615.249 523.671 C 599.598 523.687 597.593 512.959 597.983 499.837 C 599.42 451.512 614.807 405.766 649.631 371.36 C 685.161 336.257 724.264 342.435 770.031 342.445 L 902.563 342.48 L 1170.83 342.474 C 1217.15 342.472 1263.47 342.412 1309.78 342.528 C 1372.64 342.687 1415.02 402.043 1425 459.023 C 1428.82 480.856 1427.84 502.745 1427.8 524.821 L 1427.72 600.103 C 1427.65 699.167 1426.52 801.388 1428.03 900.172 L 1428.1 915.894 C 1442.02 915.982 1459.56 918.339 1473.75 919.885 L 1547.5 928.007 L 1603.96 934.146 C 1615.19 935.369 1631.19 936.61 1641.64 939.648 C 1653.55 943.164 1664.4 949.584 1673.21 958.331 C 1700.25 985.64 1695.9 1019.58 1684.87 1052.54 C 1673.74 1085.78 1664.53 1121.07 1656.9 1155.28 C 1648.84 1193.49 1646.93 1232.07 1650.3 1270.97 C 1652.3 1295.81 1661.19 1320.88 1656.6 1345.88 C 1652.43 1366.9 1639.45 1392.21 1629.88 1411.71 C 1637.86 1412.68 1650.94 1416.76 1658.99 1418.95 C 1702.98 1430.91 1744.34 1448.45 1787.2 1463.5 C 1749.51 1459.8 1711.86 1455.08 1674.04 1452.05 C 1649.82 1450.11 1625.95 1449.14 1601.73 1447.71 C 1584.91 1474.73 1566.26 1500.39 1544.48 1523.95 C 1523.06 1547.14 1496.74 1561.33 1464.24 1557.28 C 1436.37 1553.8 1408.32 1548.96 1380.43 1544.6 L 1233.28 1521.72 L 1111.25 1502.85 C 1080.13 1498.11 1037.41 1495.23 1009.95 1479.43 C 992.691 1469.5 979.462 1448.76 972.714 1430.23 C 801.607 1426.2 630.406 1429.49 459.58 1440.1 C 421.022 1442.53 382.54 1446.05 344.18 1450.65 C 329.226 1452.32 303.798 1454.62 289.724 1457.61 L 289.393 1453.23 C 324.982 1441.64 361.092 1431.72 397.604 1423.49 C 411.796 1420.2 430.963 1415.25 445.009 1413.78 L 444.927 1392.49 C 443.873 1364.61 444.706 1331.22 444.713 1302.83 L 444.889 1135.43 C 428.83 1135.89 409.646 1137.06 394.144 1134.2 C 366.24 1129.06 361.5 1089.4 382.759 1074.05 C 400.832 1061.01 421.681 1049.77 440.91 1038.58 L 556.13 971.486 C 557.287 952.79 556.406 923.71 556.401 904.288 L 556.413 776.829 C 554.295 776.529 552.142 776.087 550.086 775.495 C 543.315 773.544 537.009 768.061 533.753 761.862 C 529.937 754.595 529.242 745.351 531.882 737.578 C 534.457 729.997 540.304 723.444 547.628 720.153 C 556.367 716.226 674.787 716.4 683.72 720.515 C 690.654 723.709 695.905 730.613 698.226 737.745 C 700.73 745.435 700.899 755.347 696.95 762.595 C 692.548 770.674 684.873 774.215 676.424 776.499 C 677.546 787.563 677.052 806.242 677.049 817.81 L 676.985 890.607 C 704.741 875.422 737.583 857.123 764.902 841.188 L 764.24 817.91 L 764.785 523.98 z"></path>
<path transform="translate(0,0)" fill="rgb(254,249,230)" d="M 764.785 523.98 L 665.731 524.111 C 648.867 524.111 632.114 524.334 615.249 523.671 C 599.598 523.687 597.593 512.959 597.983 499.837 C 599.42 451.512 614.807 405.766 649.631 371.36 C 685.161 336.257 724.264 342.435 770.031 342.445 L 902.563 342.48 L 1170.83 342.474 C 1217.15 342.472 1263.47 342.412 1309.78 342.528 C 1372.64 342.687 1415.02 402.043 1425 459.023 C 1428.82 480.856 1427.84 502.745 1427.8 524.821 L 1427.72 600.103 C 1427.65 699.167 1426.52 801.388 1428.03 900.172 L 1428.1 915.894 C 1418.13 913.907 1398.96 912.364 1388.07 911.053 C 1351.11 907.907 1313.35 903.434 1275.83 899.389 C 1224.46 893.852 1176.24 881.055 1149.74 939.005 C 1145.5 948.271 1141.1 961.106 1135.84 969.674 C 1115.72 958.58 1089.62 941.668 1069.31 929.352 L 927.772 843.359 C 906.292 830.341 875.074 808.848 852.142 800.515 C 838.056 795.397 815.98 811.389 803.004 818.759 C 795.899 823.088 770.963 839.073 764.902 841.188 L 764.24 817.91 L 764.785 523.98 z"></path>
<path transform="translate(0,0)" fill="rgb(78,119,139)" d="M 764.785 523.98 L 665.731 524.111 C 648.867 524.111 632.114 524.334 615.249 523.671 C 599.598 523.687 597.593 512.959 597.983 499.837 C 599.42 451.512 614.807 405.766 649.631 371.36 C 685.161 336.257 724.264 342.435 770.031 342.445 L 902.563 342.48 L 1170.83 342.474 C 1217.15 342.472 1263.47 342.412 1309.78 342.528 C 1372.64 342.687 1415.02 402.043 1425 459.023 C 1428.82 480.856 1427.84 502.745 1427.8 524.821 L 1427.72 600.103 C 1427.65 699.167 1426.52 801.388 1428.03 900.172 L 1428.1 915.894 C 1418.13 913.907 1398.96 912.364 1388.07 911.053 C 1388.44 904.961 1388.39 897.824 1388.48 891.647 C 1387.77 880.56 1388.26 865.282 1388.28 853.944 L 1388.33 788.098 L 1388.31 577.899 C 1388.31 540.056 1390.31 500.581 1385.21 463.041 C 1381.3 434.23 1353.22 388.501 1321.53 384.528 C 1294.24 381.106 1259.44 383.233 1231.32 383.028 C 1162.77 382.53 1094.06 383.585 1025.48 382.819 C 965.693 384.714 904.208 381.832 844.22 383.003 C 819.035 383.494 791.062 383.665 765.993 382.72 C 767.275 387.918 774.329 395.974 777.408 401.343 C 791.584 426.057 802.141 458.988 802.229 487.466 C 803.713 496.622 803.264 515.793 803.238 525.679 L 803.092 590.369 L 803.004 818.759 C 795.899 823.088 770.963 839.073 764.902 841.188 L 764.24 817.91 L 764.785 523.98 z"></path>
<path transform="translate(0,0)" fill="rgb(60,102,129)" d="M 765.993 382.72 L 766.9 380.661 C 774.491 378.932 804.886 379.796 814.769 379.881 L 880.649 379.891 L 1211.54 379.861 C 1220.52 379.87 1301.63 379.409 1303.76 380.679 L 1303.42 382.312 C 1239.85 383.79 1170.01 382.331 1106.11 382.251 L 1055.34 382.189 C 1047.38 382.18 1032.94 381.777 1025.48 382.819 C 965.693 384.714 904.208 381.832 844.22 383.003 C 819.035 383.494 791.062 383.665 765.993 382.72 z"></path>
<path transform="translate(0,0)" fill="rgb(156,187,195)" d="M 802.229 487.466 C 803.713 496.622 803.264 515.793 803.238 525.679 L 803.092 590.369 L 803.004 818.759 C 795.899 823.088 770.963 839.073 764.902 841.188 L 764.24 817.91 C 766.842 812.092 795.025 798.014 802.265 794.525 C 802.922 784.125 802.378 768.209 802.369 757.233 L 802.332 686.953 L 802.229 487.466 z"></path>
<path transform="translate(0,0)" fill="rgb(156,187,195)" d="M 1388.48 891.647 C 1401.74 894.06 1414.88 897.181 1428.03 900.172 L 1428.1 915.894 C 1418.13 913.907 1398.96 912.364 1388.07 911.053 C 1388.44 904.961 1388.39 897.824 1388.48 891.647 z"></path>
<path transform="translate(0,0)" fill="rgb(156,187,195)" d="M 697.412 384.157 C 705.392 383.507 710.602 383.339 717.398 387.974 C 744.956 406.767 761.438 454.131 763.379 484.848 L 704.404 484.566 L 637.522 484.852 C 642.908 447.125 660.339 401.089 697.412 384.157 z"></path>
<path transform="translate(0,0)" fill="rgb(129,183,126)" d="M 1054.1 424.049 C 1066.22 423.985 1078.28 423.583 1090.35 423.14 C 1105.19 422.596 1097.37 447.726 1095.71 456.435 C 1117.79 460.48 1135.58 463.101 1156.44 472.547 C 1152.54 486.725 1147.68 500.622 1141.9 514.142 C 1119.05 506.684 1092.14 497.351 1067.95 498.863 C 1060.2 499.348 1044.71 509.47 1048.75 516.252 C 1058.98 533.427 1093.13 535.073 1110.84 542.158 C 1119.87 545.767 1127.84 547.42 1136.21 552.526 C 1166.75 567.906 1175.93 603.651 1158.87 632.932 C 1147.07 653.183 1126.2 660.88 1103.88 666.051 C 1104.68 672.454 1107.64 688.962 1105.06 695.03 C 1104.52 696.312 1102.97 696.213 1101.12 696.66 C 1087.04 697.065 1073.98 697.085 1059.95 695.785 C 1059.54 686.25 1060.65 677.905 1062.13 668.552 C 1040.85 666.444 1011.77 658.454 993.258 648.213 C 995.976 636.908 1002.57 620.464 1007.51 609.987 C 1034.45 618.325 1063.21 630.389 1091.86 625.587 C 1100.56 624.13 1108.67 620.198 1113.66 612.609 C 1126.3 593.364 1096.81 585.237 1083.56 581.756 C 1055.66 573.204 1017.46 566.709 1003.92 537.156 C 992.385 511.967 1002.54 478.911 1026.83 465.336 C 1037.09 459.6 1043.08 457.943 1054.44 455.204 C 1053.82 444.831 1053.71 434.433 1054.1 424.049 z"></path>
<path transform="translate(0,0)" fill="rgb(156,187,195)" d="M 869.975 723.94 C 888.057 722.729 916.119 723.558 934.828 723.571 L 1053 723.624 L 1216.5 723.628 C 1248.81 723.603 1283.6 722.958 1315.73 724.019 C 1331.03 733.418 1329.07 751.6 1311.25 755.171 C 1278.92 756.523 1238.57 755.526 1205.61 755.491 L 1021.74 755.501 L 919.726 755.465 C 904.741 755.457 888.349 755.788 873.351 755.079 C 869.686 754.613 864.167 751.579 862.256 748.35 C 856.031 737.831 861.129 729.556 869.975 723.94 z"></path>
<path transform="translate(0,0)" fill="rgb(156,187,195)" d="M 963.75 788.354 C 1039.52 786.794 1116.2 789.466 1192.04 788.41 C 1212.78 788.121 1234.69 788.123 1255.33 789.012 C 1268.92 800.614 1267.16 815.987 1249.2 820.111 L 1062 820.161 C 1029.45 820.175 997.022 820.314 964.364 819.949 C 950.36 819.792 941.828 808.032 950.004 795.282 C 953.176 790.337 958.133 789.187 963.75 788.354 z"></path>
<path transform="translate(0,0)" fill="rgb(129,183,126)" d="M 844.636 903.325 C 852.898 906.863 870.752 918.018 878.947 922.977 L 939.137 959.742 C 991.215 991.538 1049.28 1024.96 1100.11 1057.92 C 1095.37 1072.22 1084.8 1095.6 1078.78 1110.06 L 1036.7 1211.26 L 996.09 1309.07 C 990.512 1322.57 980.408 1349.47 974.269 1360.97 C 847.131 1354.12 719.65 1357.3 593.01 1370.47 C 558.768 1374.19 515.026 1379.23 481.563 1385.76 C 480.651 1380.7 480.955 1364.49 480.971 1358.65 L 481.106 1308.64 L 481.189 1129.1 C 493.28 1122.72 508.7 1112.52 520.464 1105.13 L 581.363 1066.99 L 757.846 957.041 L 812.17 922.937 C 821.806 916.882 834.845 908.18 844.636 903.325 z"></path>
<path transform="translate(0,0)" fill="rgb(254,249,230)" d="M 734.875 1056.27 C 746.458 1055.69 830.28 1054.92 833.9 1057.93 C 839.327 1069.98 834.043 1141.71 835.608 1158.86 C 835.786 1160.81 834.803 1163.64 833.434 1165.2 C 830.155 1167.41 827.315 1166.85 823.25 1166.82 L 758.836 1166.95 C 751.468 1166.97 726.639 1168.35 722.027 1164.47 C 717.217 1153.48 721.783 1104.64 720.219 1089.41 C 718.733 1074.95 720.531 1063.28 734.875 1056.27 z"></path>
<path transform="translate(0,0)" fill="rgb(254,249,230)" d="M 860.123 1056.27 C 889.422 1054.97 920.279 1056.36 949.683 1056.15 C 960.666 1056.07 968.529 1062.75 969.521 1073.88 C 970.322 1089.4 970.304 1105.96 969.783 1121.53 C 969.413 1132.57 973.566 1159.52 965.259 1166.24 C 954.725 1167.14 863.953 1168.16 858.275 1165.02 C 855.515 1160.5 855.834 1120.51 856.279 1113.87 C 857.081 1101.9 853.268 1064.58 860.123 1056.27 z"></path>
<path transform="translate(0,0)" fill="rgb(254,249,230)" d="M 725.174 1192.3 C 739.319 1191.82 827.288 1190.68 834.321 1194.53 C 838.952 1208.12 834.409 1241.82 835.645 1257.36 C 836.472 1267.75 836.398 1281.27 835.397 1291.7 C 835.107 1294.72 832.988 1295.87 830.756 1297.35 C 802.371 1299.1 770.894 1297.47 742.319 1297.4 C 733.171 1297.37 721.167 1290.55 720.796 1280.36 C 719.791 1252.74 719.814 1224.39 720.585 1196.76 C 720.659 1194.16 723.37 1193.23 725.174 1192.3 z"></path>
<path transform="translate(0,0)" fill="rgb(254,249,230)" d="M 860.906 1192.28 C 891.882 1191.34 923.533 1192.46 954.566 1192.07 C 958.396 1192.02 965.318 1192.38 968.174 1195 C 971.92 1205.14 968.937 1259.05 970.092 1273.24 C 970.739 1281.2 965.921 1288.61 959.673 1294.02 C 955.826 1295.99 947.822 1298.38 943.948 1297.88 C 931.955 1296.36 863.713 1300.5 858.162 1295.62 C 854.275 1283.56 856.672 1215.39 856.979 1198.13 C 857.032 1195.14 858.904 1193.78 860.906 1192.28 z"></path>
<path transform="translate(0,0)" fill="rgb(254,249,230)" d="M 846.701 851.97 C 857.733 857.682 876.396 870.259 887.698 877.235 L 975.024 931.266 L 1068.61 988.722 C 1083.07 997.579 1103.31 1009.03 1116.63 1018.39 C 1111.66 1031.27 1105.5 1045.11 1100.11 1057.92 C 1049.28 1024.96 991.215 991.538 939.137 959.742 L 878.947 922.977 C 870.752 918.018 852.898 906.863 844.636 903.325 C 834.845 908.18 821.806 916.882 812.17 922.937 L 757.846 957.041 L 581.363 1066.99 L 520.464 1105.13 C 508.7 1112.52 493.28 1122.72 481.189 1129.1 C 481.031 1115.34 479.841 1096.1 482.754 1082.73 C 483.661 1078.58 489.042 1074.99 492.654 1072.66 C 512.452 1059.93 532.807 1047.66 552.763 1035.15 L 679.818 955.485 L 791.234 886.238 C 808.109 875.775 829.678 861.091 846.701 851.97 z"></path>
<path transform="translate(0,0)" fill="rgb(254,249,230)" d="M 481.563 1385.76 C 515.026 1379.23 558.768 1374.19 593.01 1370.47 C 719.65 1357.3 847.131 1354.12 974.269 1360.97 C 970.605 1370.07 966.512 1379.76 963.048 1388.88 C 927.897 1388.01 892.166 1386.14 857.07 1385.91 C 755.016 1385.02 652.994 1389.9 551.492 1400.54 C 518.744 1403.99 477.251 1407.98 445.009 1413.78 L 444.927 1392.49 C 457.061 1390.4 469.357 1387.91 481.563 1385.76 z"></path>
<path transform="translate(0,0)" fill="rgb(254,249,230)" d="M 1149.39 1032.7 C 1153.29 1022.14 1158.08 1010.58 1162.64 1000.31 C 1170.26 983.128 1176.02 964.439 1185.81 948.502 C 1193.43 936.094 1208.4 930.613 1222.47 932.33 C 1256.66 935.494 1290.85 939.425 1324.98 943.374 L 1483.02 961.135 L 1561.26 969.878 C 1570.5 970.887 1582.62 972.618 1591.6 973.211 C 1648.08 976.939 1639.57 997.542 1625.63 1039.75 C 1627.04 1044.73 1621.52 1058.62 1619.75 1064.07 L 1605.11 1108.55 L 1570.91 1210.72 C 1569.52 1214.89 1569.31 1218.97 1567.62 1223.61 C 1559.65 1245.56 1552.27 1267.81 1544.51 1289.78 C 1543.32 1290.27 1543.82 1290.32 1543.04 1290.09 C 1530.66 1322.62 1521.05 1356.9 1509.38 1389.72 C 1501.23 1412.64 1495.36 1436.88 1484.45 1458.58 C 1470.63 1486.7 1434.72 1477.78 1410.03 1472.75 C 1409.64 1472.56 1409.25 1472.38 1408.86 1472.2 C 1385 1469 1359.9 1464.53 1335.89 1460.96 L 1136.61 1431.55 L 1061.99 1421.08 C 1047.97 1419.16 1031.54 1417.71 1018.14 1413.8 C 1005.91 1410.23 999.368 1396.01 1003.68 1384.06 C 1008.82 1369.81 1014.71 1356.3 1020.54 1342.4 L 1048.5 1274.45 C 1081.71 1193.69 1115.34 1113.11 1149.39 1032.7 z"></path>
<path transform="translate(0,0)" fill="url(#Gradient1)" d="M 1149.39 1032.7 C 1153.29 1022.14 1158.08 1010.58 1162.64 1000.31 C 1170.26 983.128 1176.02 964.439 1185.81 948.502 C 1193.43 936.094 1208.4 930.613 1222.47 932.33 C 1256.66 935.494 1290.85 939.425 1324.98 943.374 L 1483.02 961.135 L 1561.26 969.878 C 1570.5 970.887 1582.62 972.618 1591.6 973.211 C 1648.08 976.939 1639.57 997.542 1625.63 1039.75 C 1627.04 1044.73 1621.52 1058.62 1619.75 1064.07 L 1605.11 1108.55 L 1570.91 1210.72 C 1569.52 1214.89 1569.31 1218.97 1567.62 1223.61 C 1559.65 1245.56 1552.27 1267.81 1544.51 1289.78 C 1543.32 1290.27 1543.82 1290.32 1543.04 1290.09 C 1530.66 1322.62 1521.05 1356.9 1509.38 1389.72 C 1501.23 1412.64 1495.36 1436.88 1484.45 1458.58 C 1470.63 1486.7 1434.72 1477.78 1410.03 1472.75 C 1409.64 1472.56 1409.25 1472.38 1408.86 1472.2 L 1409.14 1471.67 C 1407.44 1469.12 1396.35 1469.86 1393.62 1467.4 C 1399.31 1464.95 1402.84 1465.96 1408.58 1464.91 C 1432.17 1460.62 1450.12 1446.95 1458.63 1424.33 C 1468.77 1397.36 1478.46 1370.69 1487.94 1343.67 C 1499.6 1311.2 1511.01 1278.63 1522.18 1245.98 C 1527.7 1229.67 1554.18 1162.26 1553.8 1149.55 C 1549.08 1138.29 1527.4 1138.98 1516.44 1137.92 L 1472.82 1133.42 L 1287.48 1112.32 L 1223.89 1105.17 C 1210.13 1103.66 1195.48 1102.33 1181.91 1099.99 C 1172.93 1098.97 1169.77 1096.71 1163.07 1092.42 C 1146.27 1081.68 1157.95 1040.72 1149.39 1032.7 z"></path>
<path transform="translate(0,0)" fill="rgb(60,102,129)" d="M 1625.63 1039.75 C 1627.04 1044.73 1621.52 1058.62 1619.75 1064.07 L 1605.11 1108.55 L 1570.91 1210.72 C 1569.52 1214.89 1569.31 1218.97 1567.62 1223.61 C 1559.65 1245.56 1552.27 1267.81 1544.51 1289.78 C 1543.32 1290.27 1543.82 1290.32 1543.04 1290.09 C 1550.5 1264.85 1560.39 1237.91 1568.71 1212.7 L 1625.63 1039.75 z"></path>
<path transform="translate(0,0)" fill="rgb(78,119,139)" d="M 1234.83 961.249 C 1244.51 960.893 1264.37 963.743 1274.86 964.876 L 1355.45 973.675 L 1487 988.106 C 1508.78 990.508 1541.34 991.564 1562.17 999.473 C 1569.81 1003.24 1576.4 1018.93 1573.93 1026.43 C 1566.18 1049.99 1559.55 1073.89 1551.33 1097.22 C 1546.3 1111.52 1536.66 1118.6 1521.9 1119.98 C 1507.79 1119.9 1486.41 1117.03 1472.26 1115.44 L 1398.9 1107.42 L 1279.47 1094.22 C 1254.26 1091.48 1217.41 1089.22 1192.56 1082.28 C 1182.38 1079.43 1178.01 1063.82 1181.4 1053.83 C 1186.27 1039.48 1192.58 1022.76 1197.62 1008.16 C 1205.73 985.859 1208.31 967.289 1234.83 961.249 z"></path>
<path transform="translate(0,0)" fill="rgb(129,183,126)" d="M 1240.67 980.303 C 1251.49 980.613 1267.5 983.155 1278.83 984.526 L 1348.53 992.67 C 1404.56 998.988 1460.91 1003.41 1516.87 1010.25 C 1524.63 1011.2 1542.15 1012.12 1548.46 1015.63 C 1551.64 1017.4 1553.73 1020.58 1554.33 1024.15 C 1555.52 1031.3 1536.57 1086.08 1531.31 1093.26 C 1526.9 1099.29 1522.62 1100.84 1515.41 1101.92 C 1494.8 1100.82 1474.36 1097.97 1453.83 1095.72 L 1356.07 1084.93 C 1328.87 1081.69 1301.64 1078.62 1274.4 1075.73 C 1256.51 1073.83 1238.38 1072.44 1220.59 1069.83 C 1216.04 1069.16 1210.15 1068.53 1206.18 1066.2 C 1203.57 1064.67 1201.6 1062.18 1200.92 1059.22 C 1199.07 1051.25 1217.72 999.277 1223.71 990.62 C 1228.28 984.015 1232.93 981.807 1240.67 980.303 z"></path>
<path transform="translate(0,0)" fill="rgb(254,249,230)" d="M 1488.06 1020.08 C 1508.73 1019.51 1513.11 1031.51 1503.46 1048.06 C 1508.76 1053.09 1508.38 1052.61 1510.32 1059.91 C 1510.94 1062.26 1518.16 1063.41 1520.83 1064.28 C 1523.23 1066.63 1525.03 1068.18 1523.45 1071.46 C 1518.15 1074.88 1512.3 1073.49 1506.27 1072.68 C 1498.85 1081.52 1496.28 1084.23 1485.24 1087.09 C 1470.56 1085.68 1467.29 1083.64 1460.32 1071 C 1454.71 1071.48 1450.78 1072.62 1446.39 1069.28 C 1444.75 1062.07 1455.13 1061.28 1460.23 1060.35 C 1465.35 1053.62 1466.91 1052.26 1473.16 1046.6 C 1469.68 1032.41 1475.19 1026.09 1488.06 1020.08 z"></path>
<path transform="translate(0,0)" fill="rgb(129,183,126)" d="M 1481.99 1053.07 C 1500.96 1051.66 1503.91 1067.02 1487.59 1075.56 C 1470.64 1076.83 1466.48 1062.6 1481.99 1053.07 z"></path>
<path transform="translate(0,0)" fill="rgb(129,183,126)" d="M 1488.1 1029.71 C 1493.72 1029.88 1496.36 1030.31 1497.88 1035.87 C 1497.09 1039.87 1496.46 1040.14 1493.49 1043.24 C 1489.59 1043.44 1489.65 1043.51 1485.91 1042.55 C 1483 1039.94 1483.83 1041.51 1483.23 1037.72 C 1484.25 1033.77 1485.37 1032.96 1488.1 1029.71 z"></path>
<path transform="translate(0,0)" fill="rgb(78,119,139)" d="M 1339.69 1354.99 C 1345.61 1336.88 1351.67 1318.81 1357.86 1300.79 C 1376.38 1246.29 1376.3 1251.16 1433.05 1258.64 C 1444.45 1260.14 1449.74 1259.9 1459.97 1267.07 C 1464.18 1274.48 1465.98 1279.87 1463.03 1288.7 C 1448.99 1330.68 1437.05 1367.59 1421.48 1409.76 C 1412.17 1435 1384.08 1423.82 1362.99 1421.75 C 1362.77 1421.65 1362.55 1421.55 1362.32 1421.44 C 1306.42 1417.06 1325.04 1394.45 1339.69 1354.99 z"></path>
<path transform="translate(0,0)" fill="rgb(60,102,129)" d="M 1339.69 1354.99 L 1340.65 1356.56 C 1335.87 1370.87 1324.6 1394.55 1329.86 1409.44 C 1332.88 1417.99 1361.21 1417.86 1363.36 1420.83 L 1362.32 1421.44 C 1306.42 1417.06 1325.04 1394.45 1339.69 1354.99 z"></path>
<path transform="translate(0,0)" fill="rgb(156,187,195)" d="M 1214.91 1331.89 C 1234.65 1331.24 1272.35 1338.76 1292.21 1342.83 C 1309 1346.27 1290.08 1388.7 1286.25 1397.57 C 1283.68 1403.54 1280.33 1405.25 1274.21 1407.15 C 1254.66 1407.51 1227.5 1400.76 1207.82 1398.92 C 1182.66 1396.56 1188.76 1382.7 1195.61 1366.68 C 1201.28 1353.39 1200.55 1339.9 1214.91 1331.89 z"></path>
<path transform="translate(0,0)" fill="rgb(156,187,195)" d="M 1254.99 1236.05 C 1274.43 1234.84 1306.1 1242.4 1326.13 1244.44 C 1343.99 1246.26 1331.93 1274.26 1328.49 1283.64 C 1324.54 1294.44 1322.25 1306.25 1311.24 1311.29 C 1299.3 1311.48 1236.55 1304.82 1229.84 1298.21 C 1225.16 1286.76 1239.64 1255.94 1244.73 1244.27 C 1246.72 1239.72 1250.58 1237.92 1254.99 1236.05 z"></path>
<path transform="translate(0,0)" fill="rgb(78,119,139)" d="M 1424.97 1156.18 C 1441.66 1154.71 1475.82 1160.18 1492.67 1163.74 C 1506.02 1166.56 1499.65 1191.51 1495.88 1200.15 C 1490.46 1212.6 1489.71 1226.95 1474.75 1232.21 C 1453.41 1232.73 1427.21 1227.8 1406.03 1225.15 C 1392.73 1223.49 1398.38 1204.59 1401.61 1196.92 C 1407.77 1182.29 1409.59 1163.72 1424.97 1156.18 z"></path>
<path transform="translate(0,0)" fill="rgb(156,187,195)" d="M 1296.45 1140.08 C 1315.39 1141.46 1349.45 1145.14 1366.85 1150.31 C 1380.08 1154.25 1364.35 1210.58 1345.11 1215.37 C 1323.45 1213.95 1293.8 1210.8 1272.76 1205.71 C 1261.06 1202.88 1271.45 1177.7 1274.39 1169.88 C 1279.11 1157.36 1281.52 1143.82 1296.45 1140.08 z"></path>
<path transform="translate(0,0)" fill="rgb(156,187,195)" d="M 1090.55 1309.32 C 1113.04 1310.76 1141.97 1314.67 1163.89 1319.7 C 1175.58 1322.38 1155.61 1372.41 1150.49 1379.46 C 1147.4 1383.71 1144.88 1384.07 1139.74 1384.95 C 1118.53 1383.38 1088.7 1380.22 1068.29 1373.94 C 1061.44 1371.46 1063.19 1357.72 1065.38 1353.17 C 1072.04 1339.35 1073.35 1312.95 1090.55 1309.32 z"></path>
<path transform="translate(0,0)" fill="rgb(156,187,195)" d="M 1168.2 1122.18 C 1189.21 1123.95 1211.2 1126.64 1231.99 1130.36 C 1252.14 1133.96 1240.45 1157.25 1235.87 1169.18 C 1230.93 1182.06 1232.11 1190.9 1217.52 1196.33 C 1209.8 1196.46 1201.16 1195.67 1194.12 1194.84 C 1137.73 1188.16 1127.84 1196.12 1154.31 1134.09 C 1157.36 1126.93 1160.47 1123.83 1168.2 1122.18 z"></path>
<path transform="translate(0,0)" fill="rgb(156,187,195)" d="M 1124.01 1216.95 C 1125.05 1216.89 1131.68 1216.61 1133.53 1217.04 C 1150.64 1221.01 1194.91 1219.76 1206.11 1231.95 C 1210.32 1236.54 1200.35 1258.51 1198.43 1266.53 C 1196.2 1275.81 1192.27 1284.17 1183.25 1289.07 C 1169.04 1290.01 1150.86 1285.94 1136.39 1284.43 C 1126.02 1283.34 1109.81 1281.79 1102.08 1275.09 C 1097.69 1266.88 1104.28 1254.77 1107.43 1246.54 C 1112.12 1234.32 1111.96 1224.01 1124.01 1216.95 z"></path>
<path transform="translate(0,0)" fill="rgb(60,102,129)" fill-opacity="0.984314" d="M 289.393 1453.23 L 289.724 1457.61 C 284.433 1458.13 278.613 1459.13 273.291 1459.89 L 272.181 1458.6 L 271.682 1458.79 L 271.793 1459.96 L 270.195 1459.83 L 271.254 1458.83 L 271.946 1459.83 L 272.42 1459.79 L 272.861 1458.19 C 277.085 1456.56 284.776 1454.56 289.393 1453.23 z"></path>
</svg>