<!-- Generated by SVGMaker - https://svgmaker.io -->
<!-- Prompt: can you make the green brighter and more like traffic green -->
<!-- Quality: medium -->
<!-- Type: edit -->
<!-- Created: 2026-01-03T00:44:22.453Z -->
<svg version="1.1" xmlns="http://www.w3.org/2000/svg" style="display: block;" viewBox="0 0 2048 2048" width="1024" height="1024" preserveAspectRatio="none">
<path transform="translate(0,0)" fill="rgb(14,98,115)" d="M 657.641 315.408 C 660.513 314.856 668.835 314.797 671.899 314.778 L 1128.4 314.865 L 1256.64 314.838 C 1282.41 314.837 1320.38 313.559 1344.56 317.83 C 1370.13 322.332 1393.69 334.613 1412.03 352.997 C 1431.84 372.792 1445.35 398.009 1450.85 425.469 C 1455.3 447.815 1454.61 472.427 1454.61 495.29 L 1454.46 578.547 L 1454.75 930.516 C 1523.34 940.291 1593.16 946.62 1661.89 955.994 C 1676.6 958 1693.02 958.834 1707.43 961.906 C 1716.67 963.87 1725.6 967.136 1733.92 971.605 C 1756.81 983.629 1772.6 1002.6 1780.15 1027.42 C 1783.53 1038.73 1784.85 1050.54 1784.05 1062.31 C 1783.11 1075.54 1776.07 1099.92 1772.44 1113.2 L 1748.6 1201.88 C 1744.45 1217.1 1736.62 1242.98 1734.59 1257.96 C 1733.34 1267.19 1734.03 1294.33 1734.06 1304.52 L 1734.13 1385.51 C 1734.13 1393.8 1734.57 1423.27 1732.79 1429.31 C 1725.8 1453.13 1708.78 1505.8 1697.9 1526.27 C 1718.29 1530.5 1831 1554.7 1838.52 1568.4 C 1839.3 1569.83 1838.94 1569.58 1838.3 1571.31 C 1832.59 1575.21 1782.34 1574.11 1772.01 1574.27 C 1732.78 1575.19 1693.55 1575.77 1654.32 1576.02 C 1643.37 1595.16 1603.35 1640.02 1586.2 1654.19 C 1577.12 1661.77 1567.13 1668.2 1556.47 1673.33 C 1536.44 1682.81 1514.36 1687.18 1492.23 1686.05 C 1472.76 1684.99 1420.86 1673.95 1399.95 1670.07 L 1220.83 1636.86 L 1091.91 1614.05 C 1067.92 1609.83 1030.07 1603.94 1007.95 1596.24 C 982.543 1585.51 959.035 1567.53 946.791 1542.27 C 877.716 1541.71 806.729 1537.36 737.378 1536.24 C 635.725 1534.86 534.059 1537.63 432.633 1544.55 C 363.165 1549.63 294.559 1556.77 225.506 1565.52 C 221.41 1566.03 213.983 1565.94 210.345 1564.31 L 210.183 1562.33 C 222.222 1543.66 352.344 1510.71 380.315 1503.6 C 379.767 1492.73 380.3 1478.78 380.307 1467.55 L 380.252 1396.54 L 380.192 1177.8 C 365.361 1178.04 345.464 1179.37 331.156 1176.49 C 302.321 1171.42 298.998 1130.78 318.925 1114.57 C 335.218 1101.32 357.913 1088.54 375.815 1077.3 C 412.914 1053.59 450.225 1030.23 487.745 1007.2 C 486.984 997.322 487.416 983.068 487.428 972.832 L 487.507 913.198 C 487.561 867.278 486.47 817.593 487.653 771.991 L 486.981 771.563 L 485.87 770.834 C 471.582 761.582 462.898 747.269 469.605 730.128 C 472.455 722.889 478.185 717.161 485.425 714.315 C 489.658 712.658 497.607 712.207 502.27 712.239 C 546.275 712.533 590.31 711.948 634.303 712.472 C 637.842 712.514 645.113 713.472 648.112 715.112 C 672.93 728.683 668.59 762.038 641.06 770.743 C 641.779 816.148 641.147 863.422 641.163 908.967 C 667.773 893.581 694.099 877.711 720.129 861.364 C 721.255 761.003 720.216 658.677 720.21 558.161 L 610.747 558.236 C 553.293 558.252 518.082 569.449 519.773 496.022 C 521.697 412.434 566.937 324.37 657.641 315.408 z"></path>
<path transform="translate(0,0)" fill="rgb(254,254,243)" d="M 717.666 360.003 L 1298.2 359.849 C 1331.67 359.826 1353.89 362.308 1379.13 387.85 C 1393.04 401.808 1402.31 419.706 1405.7 439.115 C 1408.99 457.761 1408.07 482.996 1408.06 502.495 L 1407.99 594.481 L 1408.01 927.232 C 1372.12 924.227 1333.27 919.219 1297.23 915.235 C 1239.61 908.264 1189.6 899.553 1161.42 963.91 C 1152.44 984.417 1144.46 1006.57 1135.08 1026.8 C 1118.51 1014.76 1097.34 1001.55 1079.98 990.234 L 967.098 917.257 L 872.129 855.266 C 858.951 846.7 845.718 837.853 832.425 829.471 C 808.275 814.246 791.259 813.606 765.828 826.027 L 765.874 602.787 L 765.924 530.375 C 765.981 468.23 764.398 407.736 717.666 360.003 z"></path>
<path transform="translate(0,0)" fill="rgb(64,194,80)" d="M 1056.62 416.719 C 1072.04 419.52 1098.98 421.403 1115.64 423.239 C 1113.31 432.292 1111.17 445.977 1109.41 455.507 C 1132.57 459.353 1147.59 463.139 1170.45 469.206 C 1163.31 488.306 1156.01 507.347 1148.54 526.326 C 1122.41 512.741 1081.4 503.645 1051.81 505.211 C 1027.88 506.478 1014.42 527.845 1040.6 541.009 C 1049.09 544.809 1058.34 548.22 1067.58 550.525 C 1125.74 565.025 1202.92 600.086 1160.21 672.314 C 1145.66 696.934 1112.15 705.562 1084.28 710.455 C 1083.75 719.069 1080.96 735.477 1079.67 744.588 C 1073.71 743.37 1067.01 742.382 1060.96 741.368 C 1048.41 739.389 1035.05 737.005 1022.47 735.812 C 1024.89 726.299 1027.12 716.017 1029.36 706.408 C 999.429 705.209 973.021 696.078 946.065 684.113 C 952.083 671.339 963.204 642.735 966.689 629.448 C 995.718 642.553 1022.19 650.907 1054.41 654.178 C 1066.72 657.484 1104.04 653.104 1102.28 634.86 C 1100.2 613.363 1037.26 602.733 1020.42 595.594 C 989.96 582.681 959.732 568.443 957.949 531.357 C 955.444 479.225 1006.44 455.375 1051.4 453.416 C 1053.83 441.296 1055.13 428.993 1056.62 416.719 z"></path>
<path transform="translate(0,0)" fill="rgb(64,194,80)" d="M 850.682 766.311 C 862.721 762.491 999.73 764.752 1020.22 764.754 L 1211.79 764.749 C 1245.06 764.754 1278.38 764.647 1311.65 764.927 C 1316.75 764.969 1320.46 765.113 1325 767.633 C 1341.25 774.69 1335.85 795.245 1321.72 803.925 C 1299.06 805.492 1264.57 804.497 1240.95 804.492 L 1090.63 804.47 L 935.853 804.511 C 911.171 804.515 875.71 805.504 851.994 803.926 C 835.748 793.652 834.292 777.411 850.682 766.311 z"></path>
<path transform="translate(0,0)" fill="rgb(40,179,52)" d="M 850.682 766.311 C 862.721 762.491 999.73 764.752 1020.22 764.754 L 1211.79 764.749 C 1245.06 764.754 1278.38 764.647 1311.65 764.927 C 1316.75 764.969 1320.46 765.113 1325 767.633 C 1318.23 768.554 1286.27 767.968 1277.77 767.966 L 1174.6 767.925 L 971.794 767.917 C 952.939 767.93 859.404 769.603 850.682 766.311 z"></path>
<path transform="translate(0,0)" fill="rgb(64,194,80)" d="M 966.808 851.197 C 979.336 850.402 997.951 850.933 1010.9 850.93 L 1091.62 850.928 L 1143.52 850.939 C 1159.68 850.935 1196.17 845.686 1190.08 873.024 C 1188.51 880.069 1185.25 883.188 1179.35 886.925 C 1169.67 889.238 981.67 889.491 969.533 887.222 C 965.19 886.41 961.067 883.21 958.643 879.589 C 955.441 874.805 954.796 868.402 956.207 862.887 C 957.697 857.06 961.95 854.179 966.808 851.197 z"></path>
<path transform="translate(0,0)" fill="rgb(64,194,80)" d="M 1246.7 950.403 C 1259.93 949.865 1290.84 955.013 1305.47 956.991 L 1397.09 968.826 L 1628.16 998.448 C 1650.38 1001.41 1672.71 1003.93 1694.91 1006.88 C 1701.42 1007.88 1707.33 1008.82 1713 1012.38 C 1728.82 1022.32 1733.5 1038.52 1727.27 1055.92 C 1716.9 1084.87 1705.76 1113.63 1695.18 1142.55 L 1609.91 1371.12 L 1559.68 1505.13 C 1541.22 1554.14 1534.27 1597.81 1475.92 1609.72 L 1474.74 1609.91 C 1452.5 1613.28 1396.1 1601.07 1371.74 1597.04 L 1226.92 1573.51 L 1097.48 1552.61 C 1076.51 1549.24 1055.38 1546.41 1034.51 1542.39 C 1000.18 1536.13 980.615 1503.06 993.863 1470.22 C 1004.52 1443.81 1016.79 1417.56 1028.16 1391.35 L 1099.17 1226.54 L 1166.53 1068.03 C 1174.58 1048.7 1200.3 980.141 1210.66 967.166 C 1219.91 955.57 1232.57 951.786 1246.7 950.403 z"></path>
<path transform="translate(0,0)" fill="rgb(14,98,115)" d="M 1251.22 993.104 C 1265.3 992.395 1291.88 996.914 1306.89 998.923 L 1397.63 1011.03 L 1557.14 1032.22 C 1585.26 1035.85 1613.6 1038.83 1641.62 1043.11 C 1646.63 1043.88 1656.76 1045 1660.72 1048.09 C 1664.57 1051.09 1667.35 1055.02 1667.81 1059.98 C 1668.08 1062.9 1667.68 1065.66 1666.95 1068.48 C 1663 1083.8 1625.76 1188.02 1619.16 1195.79 C 1614.62 1201.14 1607.85 1202.56 1601.23 1203.31 C 1584.85 1202.53 1555.16 1197.46 1537.95 1195.06 L 1417.27 1178.19 C 1364.13 1170.93 1311.04 1163.32 1258 1155.34 C 1235.98 1152.06 1213.27 1150.29 1192.08 1144.11 C 1183.33 1141.56 1181.98 1132.29 1184.82 1125.19 C 1199.16 1089.3 1213.53 1053.32 1227.62 1017.3 C 1232.81 1004.11 1238.63 998.021 1251.22 993.104 z"></path>
<path transform="translate(0,0)" fill="rgb(64,194,80)" d="M 1260.66 1030.06 C 1278.74 1029.31 1318.61 1036.2 1338.1 1038.88 L 1475.24 1057.55 L 1573.06 1070.13 C 1586.84 1071.91 1612.2 1074.5 1624.49 1077.99 C 1628.48 1085.22 1600.09 1153.32 1595.46 1164.23 C 1594.74 1165.92 1591.84 1167.83 1590.28 1168.84 C 1577.69 1168.93 1560.65 1165.56 1547.78 1163.79 L 1464.84 1152.3 L 1310.67 1130.26 C 1299.25 1128.64 1231.29 1121.42 1225.95 1116.02 C 1225.81 1111.86 1227.34 1104.48 1229.19 1100.82 C 1236.38 1086.65 1250.12 1038.53 1260.66 1030.06 z"></path>
<path transform="translate(0,0)" fill="rgb(254,254,243)" d="M 1588.87 1104.99 C 1593.62 1105.43 1596.03 1106.09 1598.27 1110.39 C 1598.34 1121.27 1583.15 1127.85 1574.62 1132.05 C 1547.38 1145.44 1547.88 1150.17 1526.5 1128.98 C 1524.93 1127.37 1520.49 1122.59 1520.19 1120.14 C 1519.05 1110.75 1526.4 1104.08 1535.11 1110.89 C 1539.92 1114.64 1545.22 1120.55 1549.85 1125.2 C 1563.66 1119.67 1575.03 1111.32 1588.87 1104.99 z"></path>
<path transform="translate(0,0)" fill="rgb(14,98,115)" d="M 1453.2 1347.22 C 1472.21 1346.43 1513.47 1352.21 1531.27 1360.9 C 1539.95 1365.28 1535.47 1379.7 1532.37 1386.68 C 1509.37 1438.27 1484.35 1490.11 1457.16 1539.57 C 1454.99 1543.53 1448.51 1543.94 1444.56 1544.22 C 1421.4 1541.26 1396.59 1537.42 1373.75 1532 C 1368.46 1530.75 1363.86 1527.87 1360.21 1523.83 C 1358.83 1509.56 1423.18 1389.97 1431.84 1366.26 C 1435.37 1356.6 1443.29 1350.38 1453.2 1347.22 z"></path>
<path transform="translate(0,0)" fill="rgb(254,254,243)" d="M 1182.83 1178.4 C 1195.18 1178.23 1263.84 1185.01 1272.4 1200.82 C 1274.58 1204.84 1269.31 1224.57 1266.72 1230.62 C 1257.71 1251.63 1260.97 1270.76 1235.34 1277.34 C 1224.83 1278.38 1144.11 1271.11 1143.89 1258.62 C 1143.57 1240.89 1158.38 1203.07 1166.29 1185.83 C 1168.65 1180.67 1177.77 1179.18 1182.83 1178.4 z"></path>
<path transform="translate(0,0)" fill="rgb(254,254,243)" d="M 1133.44 1300.4 C 1156.67 1301.15 1194.42 1306.36 1216.22 1312.97 C 1231.51 1317.61 1206.92 1374.4 1201.83 1383.97 C 1199.31 1388.72 1191.56 1390.13 1186.62 1391.05 C 1164.22 1389.98 1120.44 1384.66 1099.5 1376 C 1089.71 1371.95 1108.35 1324.97 1111.47 1317.26 C 1115.56 1307.14 1121.95 1301.84 1133.44 1300.4 z"></path>
<path transform="translate(0,0)" fill="rgb(254,254,243)" d="M 1495.37 1228.37 C 1512.75 1227.14 1569.89 1234.02 1581.92 1251.96 C 1585.64 1257.5 1573.28 1282.67 1569.93 1289.35 C 1563.44 1302.26 1556.12 1312.43 1541.53 1317.29 C 1520.18 1321.91 1487.22 1314.66 1467.59 1305.78 C 1455.5 1299.34 1453.55 1285.82 1457.8 1274.24 C 1464.98 1254.71 1473.07 1233.54 1495.37 1228.37 z"></path>
<path transform="translate(0,0)" fill="rgb(254,254,243)" d="M 1332.83 1205.21 C 1349.14 1203.92 1408.55 1208.96 1418.06 1224.79 C 1422.33 1231.91 1404.87 1275.77 1400.77 1284.55 C 1397.47 1291.62 1391.77 1293.88 1384.51 1295.96 C 1368.62 1296.64 1310.78 1293.59 1299.76 1285.04 C 1295.58 1275.08 1315.43 1225.95 1321.71 1214.02 C 1324.03 1209.61 1328.38 1207.2 1332.83 1205.21 z"></path>
<path transform="translate(0,0)" fill="rgb(254,254,243)" d="M 1286.49 1330.19 C 1308.57 1329 1340 1333.99 1361.24 1341.2 C 1378.31 1346.41 1370.52 1367.44 1365.43 1379.4 C 1358.92 1394.67 1357.07 1414.41 1338.66 1417.89 C 1314.34 1418.54 1281.4 1412.71 1258.46 1404.33 C 1246.28 1399.87 1260.54 1369.7 1263.36 1361.53 C 1267.93 1348.27 1271.45 1334.09 1286.49 1330.19 z"></path>
<path transform="translate(0,0)" fill="rgb(254,254,243)" d="M 1080.59 1415.23 C 1104.47 1413.71 1146.18 1422.16 1169 1430.54 C 1181.63 1435.19 1162.36 1481.41 1157.49 1489.55 C 1151.9 1493.03 1149.91 1493.59 1143.47 1494.87 C 1125.54 1495.75 1076.67 1488.22 1058.45 1482.31 C 1055.76 1481.44 1050.85 1477.97 1050.43 1474.96 C 1048.82 1463.55 1063.18 1429.17 1068.53 1420.48 C 1073.67 1417.47 1074.88 1416.99 1080.59 1415.23 z"></path>
<path transform="translate(0,0)" fill="rgb(254,254,243)" d="M 1244.18 1444.31 C 1264.67 1443.66 1301.56 1449.16 1320.87 1456.57 C 1333.21 1461.31 1316.09 1498.38 1313.24 1507.24 C 1310.68 1515.22 1305.85 1520.33 1297.25 1522.04 C 1274.79 1522.15 1240.86 1516.71 1219.17 1509.4 C 1203.92 1504.25 1226.66 1463.83 1230.15 1454.87 C 1232.39 1449.1 1238.05 1445.85 1244.18 1444.31 z"></path>
<path transform="translate(0,0)" fill="rgb(64,194,80)" d="M 423.99 1166.67 C 422.657 1136.02 419.609 1101.6 448.403 1082.66 C 484.356 1059.01 520.688 1036.03 556.876 1012.75 L 716.742 910.178 C 729.414 902.072 781.985 866.076 792.174 863.762 C 796.906 862.688 801.046 862.642 805.453 864.748 C 818.377 870.923 830.653 880.061 842.682 887.862 L 904.646 927.993 L 1117.96 1066.08 C 1110.34 1080.96 1101.73 1103.83 1095.44 1119.5 C 1087.85 1139.95 1077.76 1162.45 1069.23 1182.78 C 1047.01 1235.28 1024.5 1287.66 1001.7 1339.91 L 969.7 1414.7 C 964.03 1427.99 954.753 1451.91 947.104 1462.99 C 922.625 1464.13 890.975 1462.72 865.895 1462.4 C 828.544 1462.03 791.189 1462.5 753.858 1463.79 C 637.155 1468.11 538.004 1480.81 423.782 1495.55 L 423.885 1274.86 C 423.879 1241.54 422.672 1199 423.99 1166.67 z"></path>
<path transform="translate(0,0)" fill="rgb(254,254,243)" d="M 423.99 1166.67 C 422.657 1136.02 419.609 1101.6 448.403 1082.66 C 484.356 1059.01 520.688 1036.03 556.876 1012.75 L 716.742 910.178 C 729.414 902.072 781.985 866.076 792.174 863.762 C 796.906 862.688 801.046 862.642 805.453 864.748 C 818.377 870.923 830.653 880.061 842.682 887.862 L 904.646 927.993 L 1117.96 1066.08 C 1110.34 1080.96 1101.73 1103.83 1095.44 1119.5 C 1070.43 1104.96 1043.41 1086.78 1018.62 1071.12 L 878.527 982.678 C 854.925 967.724 819.008 943.482 795.533 930.907 C 787.232 934.152 768.977 946.447 760.615 951.776 L 703.693 988.077 L 522 1103.96 L 456.404 1145.91 C 446.52 1152.24 433.861 1161 423.99 1166.67 z"></path>
<path transform="translate(0,0)" fill="rgb(254,254,243)" d="M 662.043 1246.32 C 676.959 1245.83 760.327 1244.27 768.558 1247.51 C 772.425 1249.03 775.156 1252.84 776.418 1256.7 C 779.445 1265.95 778.348 1344.23 777.559 1357.69 C 777.356 1361.14 777.067 1364.83 775.515 1367.97 C 772.973 1373.11 769.419 1375.3 764.11 1377.05 C 748.489 1377.45 664.677 1379.33 655.814 1375.36 C 651.961 1373.64 648.468 1368.75 647.384 1364.74 C 644.704 1354.81 645.541 1278.85 646.716 1265.51 C 647.064 1261.56 647.492 1257.38 649.638 1253.95 C 652.568 1249.27 656.841 1247.46 662.043 1246.32 z"></path>
<path transform="translate(0,0)" fill="rgb(254,254,243)" d="M 660.59 1089.43 L 726.865 1089.33 C 737.905 1089.33 750.162 1088.94 761.043 1089.99 C 765.038 1090.68 773.19 1092.4 775.112 1096.61 C 778.616 1104.74 777.949 1114.05 777.712 1122.67 C 777.208 1141.08 777.718 1159.44 777.719 1177.85 C 777.719 1188.46 778.319 1199.28 776.086 1209.72 C 771.731 1215.47 770.093 1216.84 763.438 1219.6 C 730.827 1221.36 694.439 1219.21 661.607 1219.26 C 655.5 1219.27 650.677 1213.71 647.317 1209.21 C 644.947 1194.22 646.731 1165.71 646.193 1149.23 C 646.461 1134.48 645.612 1119.5 646.644 1104.8 C 647.269 1095.9 652.426 1091.18 660.59 1089.43 z"></path>
<path transform="translate(0,0)" fill="rgb(254,254,243)" d="M 820.698 1246.32 C 838.628 1245.75 916.172 1243.99 927.99 1248.04 C 930.53 1248.91 931.28 1250.24 932.326 1252.59 C 934.418 1257.29 935.342 1262.74 935.714 1267.84 C 936.665 1280.88 937.634 1358.87 933.908 1367.48 C 931.634 1372.74 927.3 1375.01 922.178 1376.89 C 906.847 1377.69 824.929 1379.11 816.14 1375.49 C 812.472 1373.98 809.392 1369.83 807.989 1366.22 C 804.761 1357.93 806.081 1277.59 806.988 1264.92 C 807.24 1261.39 807.588 1257.94 809.192 1254.75 C 811.599 1249.97 815.755 1247.74 820.698 1246.32 z"></path>
<path transform="translate(0,0)" fill="rgb(254,254,243)" d="M 822.346 1089.45 C 852.784 1089.42 883.536 1089.14 913.983 1089.41 C 919.009 1089.42 930.291 1091.8 933.213 1096.44 C 936.769 1103.72 936.347 1114.56 935.887 1122.65 C 934.317 1150.27 938.28 1181.98 934.668 1209.14 C 930.377 1216 928.017 1217.85 920.315 1219.72 C 903.466 1219.74 824.642 1222.45 815.322 1217.24 C 811.632 1215.19 808.149 1210.99 807.308 1206.81 C 805.191 1196.26 805.72 1115.73 807.191 1103.73 C 807.589 1100.48 808.08 1098.24 810.032 1095.55 C 813.301 1091.04 817.07 1090.23 822.346 1089.45 z"></path>
<path transform="translate(0,0)" fill="rgb(64,194,80)" d="M 638.439 368.255 C 657.958 366.904 671.849 378.466 683.876 392.179 C 710.793 422.87 722.688 471.077 719.967 510.988 C 697.565 511.389 673.992 511.024 651.5 511.021 C 640.478 510.941 579.858 513.468 574.008 508.92 C 570.459 506.16 568.533 500.894 567.871 496.627 C 563.411 467.9 580.135 421.667 596.899 398.433 C 607.324 383.985 620.235 371.182 638.439 368.255 z"></path>
</svg>